<svg width="23" height="24" viewBox="0 0 23 24" fill="none" xmlns="http://www.w3.org/2000/svg">
<path fill-rule="evenodd" clip-rule="evenodd" d="M12.1773 15.5526C11.9976 15.7322 11.7539 15.8332 11.4998 15.8332C11.2457 15.8332 11.002 15.7322 10.8223 15.5526L5.40097 10.1313C5.30944 10.0429 5.23643 9.93714 5.1862 9.82022C5.13598 9.7033 5.10954 9.57755 5.10843 9.4503C5.10733 9.32306 5.13158 9.19686 5.17976 9.07909C5.22795 8.96131 5.29911 8.85431 5.38909 8.76433C5.47907 8.67435 5.58607 8.60319 5.70384 8.55501C5.82162 8.50682 5.94781 8.48257 6.07506 8.48368C6.20231 8.48478 6.32806 8.51122 6.44498 8.56145C6.5619 8.61167 6.66765 8.68468 6.75605 8.77621L11.4998 13.52L16.2436 8.77621C16.4243 8.60164 16.6664 8.50505 16.9176 8.50723C17.1689 8.50941 17.4093 8.6102 17.587 8.78788C17.7646 8.96557 17.8654 9.20593 17.8676 9.4572C17.8698 9.70847 17.7732 9.95055 17.5986 10.1313L12.1773 15.5526Z" fill="#7C8794"/>
</svg>
