<svg width="402" height="22" viewBox="0 0 402 22" fill="none" xmlns="http://www.w3.org/2000/svg">
<path d="M0.646447 10.6464C0.451184 10.8417 0.451184 11.1583 0.646447 11.3536C0.841709 11.5488 1.15829 11.5488 1.35355 11.3536L0.646447 10.6464ZM401.5 11C401.5 10.7239 401.276 10.5 401 10.5L396.5 10.5C396.224 10.5 396 10.7239 396 11C396 11.2761 396.224 11.5 396.5 11.5L400.5 11.5L400.5 15.5C400.5 15.7761 400.724 16 401 16C401.276 16 401.5 15.7761 401.5 15.5L401.5 11ZM1 11L1.35355 11.3536C7.96572 4.74138 14.5127 1.5 21 1.5C27.4873 1.5 34.0343 4.74138 40.6464 11.3536L41 11L41.3536 10.6464C34.6324 3.92528 27.846 0.5 21 0.5C14.154 0.5 7.36761 3.92528 0.646447 10.6464L1 11ZM41 11L40.6464 11.3536C47.3676 18.0747 54.154 21.5 61 21.5C67.846 21.5 74.6324 18.0747 81.3536 11.3536L81 11L80.6464 10.6464C74.0343 17.2586 67.4873 20.5 61 20.5C54.5127 20.5 47.9657 17.2586 41.3536 10.6464L41 11ZM81 11L81.3536 11.3536C87.9657 4.74138 94.5127 1.5 101 1.5C107.487 1.5 114.034 4.74138 120.646 11.3536L121 11L121.354 10.6464C114.632 3.92528 107.846 0.5 101 0.5C94.154 0.5 87.3676 3.92528 80.6464 10.6464L81 11ZM121 11L120.646 11.3536C127.368 18.0747 134.154 21.5 141 21.5C147.846 21.5 154.632 18.0747 161.354 11.3536L161 11L160.646 10.6464C154.034 17.2586 147.487 20.5 141 20.5C134.513 20.5 127.966 17.2586 121.354 10.6464L121 11ZM161 11L161.354 11.3536C167.966 4.74138 174.513 1.5 181 1.5C187.487 1.5 194.034 4.74138 200.646 11.3536L201 11L201.354 10.6464C194.632 3.92528 187.846 0.5 181 0.5C174.154 0.5 167.368 3.92528 160.646 10.6464L161 11ZM201 11L200.646 11.3536C207.368 18.0747 214.154 21.5 221 21.5C227.846 21.5 234.632 18.0747 241.354 11.3536L241 11L240.646 10.6464C234.034 17.2586 227.487 20.5 221 20.5C214.513 20.5 207.966 17.2586 201.354 10.6464L201 11ZM241 11L241.354 11.3536C247.966 4.74138 254.513 1.5 261 1.5C267.487 1.5 274.034 4.74138 280.646 11.3536L281 11L281.354 10.6464C274.632 3.92528 267.846 0.5 261 0.5C254.154 0.5 247.368 3.92528 240.646 10.6464L241 11ZM281 11L280.646 11.3536C287.368 18.0747 294.154 21.5 301 21.5C307.846 21.5 314.632 18.0747 321.354 11.3536L321 11L320.646 10.6464C314.034 17.2586 307.487 20.5 301 20.5C294.513 20.5 287.966 17.2586 281.354 10.6464L281 11ZM321 11L321.354 11.3536C327.966 4.74138 334.513 1.5 341 1.5C347.487 1.5 354.034 4.74138 360.646 11.3536L361 11L361.354 10.6464C354.632 3.92528 347.846 0.5 341 0.5C334.154 0.5 327.368 3.92528 320.646 10.6464L321 11ZM361 11L360.646 11.3536C367.368 18.0747 374.154 21.5 381 21.5C387.846 21.5 394.632 18.0747 401.354 11.3536L401 11L400.646 10.6464C394.034 17.2586 387.487 20.5 381 20.5C374.513 20.5 367.966 17.2586 361.354 10.6464L361 11Z" fill="#4A5064"/>
</svg>
