<svg width="30" height="30" viewBox="0 0 30 30" fill="none" xmlns="http://www.w3.org/2000/svg">
<path d="M7.5 23.125C7.99728 23.125 8.47419 22.9275 8.82582 22.5758C9.17745 22.2242 9.375 21.7473 9.375 21.25C9.375 20.7527 9.17745 20.2758 8.82582 19.9242C8.47419 19.5725 7.99728 19.375 7.5 19.375C7.00272 19.375 6.52581 19.5725 6.17418 19.9242C5.82255 20.2758 5.625 20.7527 5.625 21.25C5.625 21.7473 5.82255 22.2242 6.17418 22.5758C6.52581 22.9275 7.00272 23.125 7.5 23.125ZM5.625 11.875L3.175 15H8.75V11.875M22.5 23.125C22.9973 23.125 23.4742 22.9275 23.8258 22.5758C24.1775 22.2242 24.375 21.7473 24.375 21.25C24.375 20.7527 24.1775 20.2758 23.8258 19.9242C23.4742 19.5725 22.9973 19.375 22.5 19.375C22.0027 19.375 21.5258 19.5725 21.1742 19.9242C20.8225 20.2758 20.625 20.7527 20.625 21.25C20.625 21.7473 20.8225 22.2242 21.1742 22.5758C21.5258 22.9275 22.0027 23.125 22.5 23.125ZM5 10H8.75V5H26.25C27.6375 5 28.75 6.1125 28.75 7.5V21.25H26.25C26.25 22.2446 25.8549 23.1984 25.1517 23.9017C24.4484 24.6049 23.4946 25 22.5 25C21.5054 25 20.5516 24.6049 19.8483 23.9017C19.1451 23.1984 18.75 22.2446 18.75 21.25H11.25C11.25 22.2446 10.8549 23.1984 10.1517 23.9017C9.44839 24.6049 8.49456 25 7.5 25C6.50544 25 5.55161 24.6049 4.84835 23.9017C4.14509 23.1984 3.75 22.2446 3.75 21.25H1.25V15L5 10Z" fill="#5D6377"/>
</svg>
