<svg width="30" height="30" viewBox="0 0 30 30" fill="none" xmlns="http://www.w3.org/2000/svg">
<path d="M14.9988 5C14.9988 5 23.5982 5.00048 25.7488 5.52539C26.3372 5.69187 26.8718 6.01026 27.2976 6.44922C27.7234 6.88818 28.0261 7.43215 28.1745 8.02539C28.571 10.2236 28.7628 12.4538 28.7488 14.6875C28.7567 16.8879 28.565 19.0845 28.1745 21.25C28.0261 21.8432 27.7234 22.3872 27.2976 22.8262C26.8718 23.265 26.3371 23.5835 25.7488 23.75C23.598 24.3249 14.9988 24.3252 14.9988 24.3252C14.9259 24.3252 6.38957 24.3225 4.24876 23.75C3.67258 23.5923 3.14703 23.2883 2.72239 22.8682C2.2976 22.4477 1.98765 21.9244 1.82396 21.3496C1.42747 19.1514 1.23474 16.9212 1.24876 14.6875C1.23781 12.4705 1.4305 10.2571 1.82396 8.0752C1.97244 7.48196 2.27512 6.93798 2.70091 6.49902C3.12656 6.06025 3.66056 5.7417 4.24876 5.5752C6.38957 5.00265 14.9259 5.00001 14.9988 5ZM12.1872 18.7754L19.3747 14.6875L12.1872 10.5996V18.7754Z" fill="#3C434A"/>
</svg>
